@startuml
'https://plantuml.com/class-diagram
abstract class player
interface Format
class WmvFormat
class RmvbFormat
class WindowsPlayer
class UnixPlayer
class LinuxPlayer

player <|-- WindowsPlayer
player <|-- UnixPlayer
player <|-- LinuxPlayer

Format <|-- WmvFormat
Format <|-- RmvbFormat
player o-Format
@enduml